<svg width="21" height="21" viewBox="0 0 21 21" fill="none" xmlns="http://www.w3.org/2000/svg">
<g id="vuesax/linear/dollar-circle">
<g id="dollar-circle">
<path id="Vector" d="M7.60132 12.1141C7.60132 13.1891 8.42632 14.0557 9.45132 14.0557H11.543C12.4347 14.0557 13.1597 13.2974 13.1597 12.3641C13.1597 11.3474 12.718 10.9891 12.0597 10.7557L8.70132 9.58906C8.04298 9.35573 7.60132 8.9974 7.60132 7.98073C7.60132 7.0474 8.32632 6.28906 9.21798 6.28906H11.3097C12.3347 6.28906 13.1597 7.15573 13.1597 8.23073" stroke="#6F767E" stroke-width="1.5" stroke-linecap="round" stroke-linejoin="round"/>
<path id="Vector_2" d="M10.3748 5.17285V15.1729" stroke="#6F767E" stroke-width="1.5" stroke-linecap="round" stroke-linejoin="round"/>
<path id="Vector_3" d="M10.3748 18.5065C14.9771 18.5065 18.7081 14.7755 18.7081 10.1732C18.7081 5.5708 14.9771 1.83984 10.3748 1.83984C5.7724 1.83984 2.04144 5.5708 2.04144 10.1732C2.04144 14.7755 5.7724 18.5065 10.3748 18.5065Z" stroke="#6F767E" stroke-width="1.5" stroke-linecap="round" stroke-linejoin="round"/>
</g>
</g>
</svg>
