<svg width="21" height="21" viewBox="0 0 21 21" fill="none" xmlns="http://www.w3.org/2000/svg">
<g id="vuesax/linear/money-recive">
<g id="Group">
<path id="Vector" d="M8.29144 11.6314C8.29144 12.4397 8.91645 13.0897 9.68312 13.0897H11.2498C11.9164 13.0897 12.4581 12.523 12.4581 11.8147C12.4581 11.0564 12.1248 10.7814 11.6331 10.6064L9.12478 9.73138C8.63311 9.55638 8.29978 9.28971 8.29978 8.52305C8.29978 7.82305 8.84144 7.24805 9.5081 7.24805H11.0748C11.8414 7.24805 12.4665 7.89805 12.4665 8.70638" stroke="#6F767E" stroke-width="1.5" stroke-linecap="round" stroke-linejoin="round"/>
<path id="Vector_2" d="M10.3748 6.42285V13.9229" stroke="#6F767E" stroke-width="1.5" stroke-linecap="round" stroke-linejoin="round"/>
</g>
<path id="Vector_3" d="M18.7081 10.1732C18.7081 14.7732 14.9748 18.5065 10.3748 18.5065C5.77478 18.5065 2.04144 14.7732 2.04144 10.1732C2.04144 5.57318 5.77478 1.83984 10.3748 1.83984" stroke="#6F767E" stroke-width="1.5" stroke-linecap="round" stroke-linejoin="round"/>
<path id="Vector_4" d="M14.5414 2.67285V6.00618H17.8748" stroke="#6F767E" stroke-width="1.5" stroke-linecap="round" stroke-linejoin="round"/>
<path id="Vector_5" d="M18.7081 1.83984L14.5414 6.00651" stroke="#6F767E" stroke-width="1.5" stroke-linecap="round" stroke-linejoin="round"/>
</g>
</svg>
